<svg xmlns="http://www.w3.org/2000/svg" viewBox="0 0 640 260" font-family="monospace">
<rect width="640" height="260" fill="#05070c" rx="12"/>
<text x="46" y="26" fill="#e6edf3" font-size="14">commits per day (main branch)</text>
<rect x="50" y="171" width="47" height="43" rx="3" fill="#a78bfa"/>
<text x="73" y="165" fill="#e6edf3" font-size="10" text-anchor="middle">6</text>
<text x="73" y="244" fill="#98a2b3" font-size="8" text-anchor="middle">25</text>
<rect x="105" y="128" width="47" height="86" rx="3" fill="#a78bfa"/>
<text x="128" y="122" fill="#e6edf3" font-size="10" text-anchor="middle">12</text>
<text x="128" y="244" fill="#98a2b3" font-size="8" text-anchor="middle">26</text>
<rect x="160" y="99" width="47" height="115" rx="3" fill="#a78bfa"/>
<text x="183" y="93" fill="#e6edf3" font-size="10" text-anchor="middle">16</text>
<text x="183" y="244" fill="#98a2b3" font-size="8" text-anchor="middle">29</text>
<rect x="214" y="164" width="47" height="50" rx="3" fill="#a78bfa"/>
<text x="238" y="158" fill="#e6edf3" font-size="10" text-anchor="middle">7</text>
<text x="238" y="244" fill="#98a2b3" font-size="8" text-anchor="middle">30</text>
<rect x="269" y="178" width="47" height="36" rx="3" fill="#a78bfa"/>
<text x="293" y="172" fill="#e6edf3" font-size="10" text-anchor="middle">5</text>
<text x="293" y="244" fill="#98a2b3" font-size="8" text-anchor="middle">02</text>
<rect x="324" y="106" width="47" height="108" rx="3" fill="#a78bfa"/>
<text x="347" y="100" fill="#e6edf3" font-size="10" text-anchor="middle">15</text>
<text x="347" y="244" fill="#98a2b3" font-size="8" text-anchor="middle">05</text>
<rect x="379" y="99" width="47" height="115" rx="3" fill="#a78bfa"/>
<text x="402" y="93" fill="#e6edf3" font-size="10" text-anchor="middle">16</text>
<text x="402" y="244" fill="#98a2b3" font-size="8" text-anchor="middle">06</text>
<rect x="434" y="156" width="47" height="58" rx="3" fill="#a78bfa"/>
<text x="457" y="150" fill="#e6edf3" font-size="10" text-anchor="middle">8</text>
<text x="457" y="244" fill="#98a2b3" font-size="8" text-anchor="middle">07</text>
<rect x="488" y="84" width="47" height="130" rx="3" fill="#a78bfa"/>
<text x="512" y="78" fill="#e6edf3" font-size="10" text-anchor="middle">18</text>
<text x="512" y="244" fill="#98a2b3" font-size="8" text-anchor="middle">08</text>
<rect x="543" y="77" width="47" height="137" rx="3" fill="#a78bfa"/>
<text x="567" y="71" fill="#e6edf3" font-size="10" text-anchor="middle">19</text>
<text x="567" y="244" fill="#98a2b3" font-size="8" text-anchor="middle">09</text>
</svg>
